<?xml version="1.0" standalone="no"?>
<!DOCTYPE svg PUBLIC "-//W3C//DTD SVG 20010904//EN"
 "http://www.w3.org/TR/2001/REC-SVG-20010904/DTD/svg10.dtd">
<svg version="1.0" xmlns="http://www.w3.org/2000/svg"
 width="512.000000pt" height="512.000000pt" viewBox="0 0 512.000000 512.000000"
 preserveAspectRatio="xMidYMid meet">

<g transform="translate(0.000000,512.000000) scale(0.100000,-0.100000)"
fill="#000000" stroke="none">
<path d="M2501 4684 c-18 -23 -21 -41 -21 -125 0 -88 -2 -99 -17 -99 -30 0
-117 -56 -157 -100 -62 -69 -80 -120 -81 -230 0 -89 2 -99 34 -158 59 -108
147 -166 278 -182 133 -17 203 -82 203 -188 0 -107 -77 -182 -186 -182 -52 0
-88 16 -125 57 -35 37 -45 59 -53 115 -12 79 -74 111 -130 67 -22 -18 -26 -28
-26 -74 0 -134 110 -279 233 -310 l27 -7 0 -100 c0 -92 2 -101 25 -123 15 -16
36 -25 55 -25 19 0 40 9 55 25 23 22 25 31 25 122 l0 98 52 19 c73 26 157 112
187 191 32 83 27 207 -11 280 -54 104 -163 177 -283 190 -86 9 -118 21 -152
58 -43 46 -53 69 -53 127 0 93 48 156 137 179 91 25 204 -40 218 -126 17 -101
36 -127 92 -127 56 0 76 33 71 114 -6 78 -34 138 -92 198 -41 43 -121 92 -151
92 -12 0 -15 17 -15 99 0 84 -3 102 -21 125 -16 20 -29 26 -59 26 -30 0 -43
-6 -59 -26z"/>
<path d="M865 3156 c-16 -7 -40 -24 -53 -38 -12 -13 -127 -286 -259 -614 -249
-621 -253 -635 -219 -702 23 -45 53 -61 264 -145 217 -87 245 -91 312 -49 l45
28 125 -84 c166 -113 155 -99 129 -156 -31 -72 -24 -170 16 -227 43 -61 93
-97 153 -111 41 -10 52 -17 52 -33 1 -30 38 -106 68 -138 40 -42 98 -69 163
-74 53 -5 58 -8 64 -33 8 -38 69 -107 116 -131 21 -10 59 -22 83 -25 40 -6 45
-10 55 -44 30 -101 128 -173 235 -173 79 0 134 27 201 99 l51 55 59 -47 c143
-112 252 -124 373 -42 42 29 102 117 102 151 0 14 10 17 68 17 141 0 226 73
267 226 2 6 31 14 64 17 110 10 213 92 239 189 7 28 9 29 77 32 111 4 193 55
242 150 32 64 40 146 19 206 -8 25 -12 47 -8 51 4 3 50 36 103 72 l96 67 19
-21 c33 -37 74 -52 123 -46 39 5 305 105 409 154 19 9 45 33 59 54 47 71 47
72 -211 715 -131 327 -246 599 -258 612 -27 29 -77 52 -114 52 -47 0 -431
-158 -464 -191 -29 -30 -54 -93 -48 -126 4 -22 -47 -47 -130 -64 -57 -12 -99
-9 -470 30 -303 33 -427 42 -487 38 -109 -9 -181 -32 -277 -90 l-47 -28 -328
15 c-337 15 -388 23 -475 67 -24 12 -35 24 -32 33 9 24 -15 93 -44 123 -19 21
-84 52 -233 111 -113 45 -219 82 -235 82 -16 -1 -42 -7 -59 -14z m187 -849
c-124 -309 -226 -563 -228 -565 -3 -6 -344 133 -344 140 0 8 438 1106 446
1120 2 3 82 -25 178 -64 l174 -69 -226 -562z m3367 135 c122 -303 221 -555
221 -560 0 -7 -341 -146 -345 -140 -1 2 -103 256 -227 565 l-226 562 171 69
c95 38 175 66 179 63 3 -3 106 -255 227 -559z m-1349 217 c420 -46 482 -46
599 -4 40 15 74 25 76 23 2 -2 82 -200 178 -441 l175 -437 -31 -24 c-116 -85
-207 -146 -216 -146 -6 0 -116 81 -245 180 -128 99 -246 185 -262 191 -16 6
-99 12 -184 13 -146 2 -160 4 -249 34 -123 43 -196 82 -304 164 -92 69 -138
86 -197 73 -16 -4 -117 -61 -223 -127 -105 -67 -207 -127 -225 -135 -86 -36
-174 63 -129 145 16 29 527 443 588 476 62 34 141 55 214 55 34 1 229 -17 435
-40z m-1590 -14 c81 -30 167 -40 442 -53 l157 -7 -137 -110 c-257 -206 -277
-231 -277 -355 0 -58 5 -84 22 -116 51 -96 133 -146 239 -145 82 0 109 13 316
144 92 58 176 111 187 117 17 8 31 2 85 -39 126 -96 265 -165 404 -203 58 -16
114 -22 225 -24 l148 -4 252 -193 c139 -107 258 -201 265 -210 40 -47 19 -143
-38 -172 -70 -36 -93 -25 -294 144 -174 146 -196 158 -247 130 -25 -13 -41
-53 -33 -84 4 -15 56 -66 133 -130 131 -110 161 -144 161 -183 0 -56 -56 -112
-112 -112 -32 0 -65 22 -223 149 -152 122 -176 131 -220 86 -30 -29 -33 -74
-7 -102 9 -11 66 -62 125 -113 60 -51 113 -104 118 -119 26 -68 -28 -141 -104
-141 -38 0 -54 9 -150 86 -125 99 -160 111 -201 71 -41 -41 -35 -82 16 -126
118 -102 113 -96 113 -146 0 -40 -5 -51 -33 -76 -51 -46 -94 -41 -176 21 -36
28 -66 53 -66 56 0 2 11 21 24 42 103 159 16 356 -171 387 -39 6 -44 10 -55
46 -15 52 -82 127 -133 150 -22 10 -63 19 -91 19 -48 0 -52 2 -57 28 -14 71
-125 162 -198 162 -23 0 -28 5 -34 37 -30 163 -206 250 -353 177 -36 -18 -70
-47 -109 -95 -33 -40 -61 -65 -67 -61 -43 27 -293 196 -300 203 -5 4 71 206
170 454 140 350 182 445 194 441 8 -2 49 -17 90 -31z m194 -1076 c44 -52 37
-73 -75 -210 -56 -68 -111 -129 -123 -136 -26 -15 -61 -16 -88 -2 -28 15 -50
72 -39 101 11 29 204 264 223 271 38 15 77 6 102 -24z m244 -236 c43 -47 32
-76 -80 -215 -130 -159 -161 -176 -219 -119 -21 21 -29 39 -29 64 0 30 16 54
106 162 58 69 116 130 127 135 32 12 69 2 95 -27z m277 -188 c17 -16 25 -35
25 -59 0 -29 -16 -54 -101 -158 -55 -68 -113 -129 -129 -137 -56 -28 -120 14
-120 79 0 37 24 71 168 238 49 57 57 62 93 62 29 0 47 -7 64 -25z m256 -214
c55 -56 44 -81 -118 -273 -73 -86 -84 -93 -138 -89 -31 3 -65 47 -65 86 0 27
17 55 95 152 131 162 168 182 226 124z"/>
</g>
</svg>
